<svg xmlns="http://www.w3.org/2000/svg" xmlns:xlink="http://www.w3.org/1999/xlink" xmlns:ev="http://www.w3.org/2001/xml-events" version="1.1" width="1202" height="548" viewBox="-15 -15 1202 548"><text style="font-family: Verdana; font-size: 12px; font-weight: normal; fill: #000000; line-height: 15px;" transform="translate(894, 15)"><tspan x="0" y="0">1. Ben's Spitzname</tspan><tspan x="0" y="15">2. Die schönste Stadt neben München</tspan><tspan x="0" y="30">3. Unser Lieblingsvater</tspan><tspan x="0" y="45">4. Du süßeste Süßigkeit</tspan><tspan x="0" y="60">5. Dein derzeitger Lieblingsverlag</tspan><tspan x="0" y="75">6. Ein Thema, dass uns verbindet</tspan><tspan x="0" y="90">7. Radikalen Humanismus gibt es vom</tspan><tspan x="0" y="105">8. Eine großartige Bar in München</tspan><tspan x="0" y="120">9. Eine Freundin und ein Lied</tspan><tspan x="0" y="135">10. Mein guter Arbeits-Boi</tspan><tspan x="0" y="150">11. In diesem Bad waren wir zum schwimmen</tspan><tspan x="0" y="165">12. Interessantes hängendes Ding</tspan><tspan x="0" y="180">13. Bösartige, lustige Schweizerin</tspan><tspan x="0" y="195">14. Männer, Frauen, Hunde, Katzen</tspan><tspan x="0" y="210">15. Mein Lieblings-Glatzkopf</tspan><tspan x="0" y="225">16. In Ordnung (fr)</tspan><tspan x="0" y="240">17. Du würdest gerne hinziehen</tspan><tspan x="0" y="255">18. Lass uns einen gucken!</tspan></text><g><g><rect x="529" y="73" width="35" height="35" fill="#000000"></rect><rect x="564" y="73" width="35" height="35" fill="#000000"></rect><rect x="599" y="73" width="35" height="35" fill="#000000"></rect><rect x="634" y="73" width="35" height="35" fill="#000000"></rect><rect x="669" y="73" width="35" height="35" fill="#000000"></rect><rect x="424" y="73" width="35" height="35" fill="#000000"></rect><rect x="354" y="73" width="35" height="35" fill="#000000"></rect><rect x="179" y="73" width="35" height="35" fill="#000000"></rect><rect x="4" y="73" width="35" height="35" fill="#000000"></rect><rect x="39" y="73" width="35" height="35" fill="#000000"></rect><rect x="74" y="73" width="35" height="35" fill="#000000"></rect><rect x="109" y="73" width="35" height="35" fill="#000000"></rect><rect x="144" y="73" width="35" height="35" fill="#000000"></rect><rect x="214" y="73" width="35" height="35" fill="#000000"></rect><rect x="564" y="108" width="35" height="35" fill="#000000"></rect><rect x="634" y="108" width="35" height="35" fill="#000000"></rect><rect x="809" y="108" width="35" height="35" fill="#000000"></rect><rect x="424" y="108" width="35" height="35" fill="#000000"></rect><rect x="354" y="108" width="35" height="35" fill="#000000"></rect><rect x="179" y="108" width="35" height="35" fill="#000000"></rect><rect x="564" y="143" width="35" height="35" fill="#000000"></rect><rect x="634" y="143" width="35" height="35" fill="#000000"></rect><rect x="669" y="143" width="35" height="35" fill="#000000"></rect><rect x="704" y="143" width="35" height="35" fill="#000000"></rect><rect x="739" y="143" width="35" height="35" fill="#000000"></rect><rect x="774" y="143" width="35" height="35" fill="#000000"></rect><rect x="809" y="143" width="35" height="35" fill="#000000"></rect><rect x="844" y="143" width="35" height="35" fill="#000000"></rect><rect x="424" y="143" width="35" height="35" fill="#000000"></rect><rect x="354" y="143" width="35" height="35" fill="#000000"></rect><rect x="179" y="143" width="35" height="35" fill="#000000"></rect><rect x="214" y="143" width="35" height="35" fill="#000000"></rect><rect x="249" y="143" width="35" height="35" fill="#000000"></rect><rect x="284" y="143" width="35" height="35" fill="#000000"></rect><rect x="319" y="143" width="35" height="35" fill="#000000"></rect><rect x="529" y="178" width="35" height="35" fill="#000000"></rect><rect x="564" y="178" width="35" height="35" fill="#000000"></rect><rect x="599" y="178" width="35" height="35" fill="#000000"></rect><rect x="669" y="178" width="35" height="35" fill="#000000"></rect><rect x="809" y="178" width="35" height="35" fill="#000000"></rect><rect x="389" y="178" width="35" height="35" fill="#000000"></rect><rect x="424" y="178" width="35" height="35" fill="#000000"></rect><rect x="459" y="178" width="35" height="35" fill="#000000"></rect><rect x="494" y="178" width="35" height="35" fill="#000000"></rect><rect x="179" y="178" width="35" height="35" fill="#000000"></rect><rect x="109" y="178" width="35" height="35" fill="#000000"></rect><rect x="284" y="178" width="35" height="35" fill="#000000"></rect><rect x="564" y="213" width="35" height="35" fill="#000000"></rect><rect x="669" y="213" width="35" height="35" fill="#000000"></rect><rect x="809" y="213" width="35" height="35" fill="#000000"></rect><rect x="179" y="213" width="35" height="35" fill="#000000"></rect><rect x="4" y="213" width="35" height="35" fill="#000000"></rect><rect x="39" y="213" width="35" height="35" fill="#000000"></rect><rect x="74" y="213" width="35" height="35" fill="#000000"></rect><rect x="109" y="213" width="35" height="35" fill="#000000"></rect><rect x="144" y="213" width="35" height="35" fill="#000000"></rect><rect x="214" y="213" width="35" height="35" fill="#000000"></rect><rect x="284" y="213" width="35" height="35" fill="#000000"></rect><rect x="564" y="248" width="35" height="35" fill="#000000"></rect><rect x="669" y="248" width="35" height="35" fill="#000000"></rect><rect x="179" y="248" width="35" height="35" fill="#000000"></rect><rect x="109" y="248" width="35" height="35" fill="#000000"></rect><rect x="284" y="248" width="35" height="35" fill="#000000"></rect><rect x="669" y="283" width="35" height="35" fill="#000000"></rect><rect x="109" y="283" width="35" height="35" fill="#000000"></rect><rect x="284" y="283" width="35" height="35" fill="#000000"></rect><rect x="529" y="318" width="35" height="35" fill="#000000"></rect><rect x="564" y="318" width="35" height="35" fill="#000000"></rect><rect x="599" y="318" width="35" height="35" fill="#000000"></rect><rect x="634" y="318" width="35" height="35" fill="#000000"></rect><rect x="669" y="318" width="35" height="35" fill="#000000"></rect><rect x="109" y="318" width="35" height="35" fill="#000000"></rect><rect x="284" y="318" width="35" height="35" fill="#000000"></rect><rect x="284" y="353" width="35" height="35" fill="#000000"></rect><rect x="284" y="388" width="35" height="35" fill="#000000"></rect><rect x="214" y="388" width="35" height="35" fill="#000000"></rect><rect x="249" y="388" width="35" height="35" fill="#000000"></rect><rect x="319" y="388" width="35" height="35" fill="#000000"></rect><rect x="354" y="388" width="35" height="35" fill="#000000"></rect><rect x="389" y="388" width="35" height="35" fill="#000000"></rect><rect x="634" y="3" width="35" height="35" fill="#000000"></rect><rect x="424" y="3" width="35" height="35" fill="#000000"></rect><rect x="179" y="3" width="35" height="35" fill="#000000"></rect><rect x="564" y="38" width="35" height="35" fill="#000000"></rect><rect x="634" y="38" width="35" height="35" fill="#000000"></rect><rect x="424" y="38" width="35" height="35" fill="#000000"></rect><rect x="284" y="38" width="35" height="35" fill="#000000"></rect><rect x="319" y="38" width="35" height="35" fill="#000000"></rect><rect x="354" y="38" width="35" height="35" fill="#000000"></rect><rect x="389" y="38" width="35" height="35" fill="#000000"></rect><rect x="459" y="38" width="35" height="35" fill="#000000"></rect><rect x="179" y="38" width="35" height="35" fill="#000000"></rect></g><g transform="translate(525, 70)"><rect x="0" y="0" width="35" height="35" fill="#ffffff" stroke="#000000" stroke-width="1"></rect><text x="0.5" y="10.5" style="line-height: 1; font-family: Verdana; font-size: 10px; font-weight: normal; fill: #000000;">▸15</text></g><g transform="translate(560, 70)"><rect x="0" y="0" width="35" height="35" fill="#ffffff" stroke="#000000" stroke-width="1"></rect></g><g transform="translate(595, 70)"><rect x="0" y="0" width="35" height="35" fill="#ffffff" stroke="#000000" stroke-width="1"></rect></g><g transform="translate(630, 70)"><rect x="0" y="0" width="35" height="35" fill="#ffffff" stroke="#000000" stroke-width="1"></rect></g><g transform="translate(665, 70)"><rect x="0" y="0" width="35" height="35" fill="#ffffff" stroke="#000000" stroke-width="1"></rect></g><g transform="translate(420, 70)"><rect x="0" y="0" width="35" height="35" fill="#ffffff" stroke="#000000" stroke-width="1"></rect></g><g transform="translate(350, 70)"><rect x="0" y="0" width="35" height="35" fill="#ffffff" stroke="#000000" stroke-width="1"></rect></g><g transform="translate(175, 70)"><rect x="0" y="0" width="35" height="35" fill="#ffffff" stroke="#000000" stroke-width="1"></rect></g><g transform="translate(0, 70)"><rect x="0" y="0" width="35" height="35" fill="#ffffff" stroke="#000000" stroke-width="1"></rect><text x="0.5" y="10.5" style="line-height: 1; font-family: Verdana; font-size: 10px; font-weight: normal; fill: #000000;">▸3</text></g><g transform="translate(35, 70)"><rect x="0" y="0" width="35" height="35" fill="#ffffff" stroke="#000000" stroke-width="1"></rect></g><g transform="translate(70, 70)"><rect x="0" y="0" width="35" height="35" fill="#ffffff" stroke="#000000" stroke-width="1"></rect></g><g transform="translate(105, 70)"><rect x="0" y="0" width="35" height="35" fill="#ffffff" stroke="#000000" stroke-width="1"></rect></g><g transform="translate(140, 70)"><rect x="0" y="0" width="35" height="35" fill="#ffffff" stroke="#000000" stroke-width="1"></rect></g><g transform="translate(210, 70)"><rect x="0" y="0" width="35" height="35" fill="#ffffff" stroke="#000000" stroke-width="1"></rect></g><g transform="translate(560, 105)"><rect x="0" y="0" width="35" height="35" fill="#ffffff" stroke="#000000" stroke-width="1"></rect></g><g transform="translate(630, 105)"><rect x="0" y="0" width="35" height="35" fill="#d5d5d5" stroke="#000000" stroke-width="1"></rect><text y="31.5" style="line-height: 1; font-family: Verdana; font-size: 10px; font-weight: bold; fill: #ffffff;" x="24.5">2</text></g><g transform="translate(805, 105)"><rect x="0" y="0" width="35" height="35" fill="#d5d5d5" stroke="#000000" stroke-width="1"></rect><text y="31.5" style="line-height: 1; font-family: Verdana; font-size: 10px; font-weight: bold; fill: #ffffff;" x="24.5">4</text><text x="0.5" y="10.5" style="line-height: 1; font-family: Verdana; font-size: 10px; font-weight: normal; fill: #000000;">▾5</text></g><g transform="translate(420, 105)"><rect x="0" y="0" width="35" height="35" fill="#ffffff" stroke="#000000" stroke-width="1"></rect></g><g transform="translate(350, 105)"><rect x="0" y="0" width="35" height="35" fill="#d5d5d5" stroke="#000000" stroke-width="1"></rect><text y="31.5" style="line-height: 1; font-family: Verdana; font-size: 10px; font-weight: bold; fill: #ffffff;" x="24.5">1</text></g><g transform="translate(175, 105)"><rect x="0" y="0" width="35" height="35" fill="#ffffff" stroke="#000000" stroke-width="1"></rect></g><g transform="translate(560, 140)"><rect x="0" y="0" width="35" height="35" fill="#ffffff" stroke="#000000" stroke-width="1"></rect></g><g transform="translate(630, 140)"><rect x="0" y="0" width="35" height="35" fill="#ffffff" stroke="#000000" stroke-width="1"></rect><text x="0.5" y="10.5" style="line-height: 1; font-family: Verdana; font-size: 10px; font-weight: normal; fill: #000000;">▸1</text></g><g transform="translate(665, 140)"><rect x="0" y="0" width="35" height="35" fill="#ffffff" stroke="#000000" stroke-width="1"></rect><text x="0.5" y="10.5" style="line-height: 1; font-family: Verdana; font-size: 10px; font-weight: normal; fill: #000000;">▾14</text></g><g transform="translate(700, 140)"><rect x="0" y="0" width="35" height="35" fill="#ffffff" stroke="#000000" stroke-width="1"></rect></g><g transform="translate(735, 140)"><rect x="0" y="0" width="35" height="35" fill="#ffffff" stroke="#000000" stroke-width="1"></rect></g><g transform="translate(770, 140)"><rect x="0" y="0" width="35" height="35" fill="#ffffff" stroke="#000000" stroke-width="1"></rect></g><g transform="translate(805, 140)"><rect x="0" y="0" width="35" height="35" fill="#ffffff" stroke="#000000" stroke-width="1"></rect></g><g transform="translate(840, 140)"><rect x="0" y="0" width="35" height="35" fill="#ffffff" stroke="#000000" stroke-width="1"></rect></g><g transform="translate(420, 140)"><rect x="0" y="0" width="35" height="35" fill="#d5d5d5" stroke="#000000" stroke-width="1"></rect><text y="31.5" style="line-height: 1; font-family: Verdana; font-size: 10px; font-weight: bold; fill: #ffffff;" x="24.5">5</text></g><g transform="translate(350, 140)"><rect x="0" y="0" width="35" height="35" fill="#ffffff" stroke="#000000" stroke-width="1"></rect></g><g transform="translate(175, 140)"><rect x="0" y="0" width="35" height="35" fill="#ffffff" stroke="#000000" stroke-width="1"></rect><text x="0.5" y="10.5" style="line-height: 1; font-family: Verdana; font-size: 10px; font-weight: normal; fill: #000000;">▸9</text></g><g transform="translate(210, 140)"><rect x="0" y="0" width="35" height="35" fill="#ffffff" stroke="#000000" stroke-width="1"></rect></g><g transform="translate(245, 140)"><rect x="0" y="0" width="35" height="35" fill="#ffffff" stroke="#000000" stroke-width="1"></rect></g><g transform="translate(280, 140)"><rect x="0" y="0" width="35" height="35" fill="#ffffff" stroke="#000000" stroke-width="1"></rect><text x="0.5" y="10.5" style="line-height: 1; font-family: Verdana; font-size: 10px; font-weight: normal; fill: #000000;">▾11</text></g><g transform="translate(315, 140)"><rect x="0" y="0" width="35" height="35" fill="#ffffff" stroke="#000000" stroke-width="1"></rect></g><g transform="translate(525, 175)"><rect x="0" y="0" width="35" height="35" fill="#ffffff" stroke="#000000" stroke-width="1"></rect></g><g transform="translate(560, 175)"><rect x="0" y="0" width="35" height="35" fill="#ffffff" stroke="#000000" stroke-width="1"></rect></g><g transform="translate(595, 175)"><rect x="0" y="0" width="35" height="35" fill="#ffffff" stroke="#000000" stroke-width="1"></rect></g><g transform="translate(665, 175)"><rect x="0" y="0" width="35" height="35" fill="#ffffff" stroke="#000000" stroke-width="1"></rect></g><g transform="translate(805, 175)"><rect x="0" y="0" width="35" height="35" fill="#ffffff" stroke="#000000" stroke-width="1"></rect></g><g transform="translate(385, 175)"><rect x="0" y="0" width="35" height="35" fill="#ffffff" stroke="#000000" stroke-width="1"></rect><text x="0.5" y="10.5" style="line-height: 1; font-family: Verdana; font-size: 10px; font-weight: normal; fill: #000000;">▸7</text></g><g transform="translate(420, 175)"><rect x="0" y="0" width="35" height="35" fill="#ffffff" stroke="#000000" stroke-width="1"></rect></g><g transform="translate(455, 175)"><rect x="0" y="0" width="35" height="35" fill="#ffffff" stroke="#000000" stroke-width="1"></rect></g><g transform="translate(490, 175)"><rect x="0" y="0" width="35" height="35" fill="#ffffff" stroke="#000000" stroke-width="1"></rect></g><g transform="translate(175, 175)"><rect x="0" y="0" width="35" height="35" fill="#ffffff" stroke="#000000" stroke-width="1"></rect></g><g transform="translate(105, 175)"><rect x="0" y="0" width="35" height="35" fill="#ffffff" stroke="#000000" stroke-width="1"></rect><text x="0.5" y="10.5" style="line-height: 1; font-family: Verdana; font-size: 10px; font-weight: normal; fill: #000000;">▾6</text></g><g transform="translate(280, 175)"><rect x="0" y="0" width="35" height="35" fill="#ffffff" stroke="#000000" stroke-width="1"></rect></g><g transform="translate(560, 210)"><rect x="0" y="0" width="35" height="35" fill="#ffffff" stroke="#000000" stroke-width="1"></rect></g><g transform="translate(665, 210)"><rect x="0" y="0" width="35" height="35" fill="#ffffff" stroke="#000000" stroke-width="1"></rect></g><g transform="translate(805, 210)"><rect x="0" y="0" width="35" height="35" fill="#ffffff" stroke="#000000" stroke-width="1"></rect></g><g transform="translate(175, 210)"><rect x="0" y="0" width="35" height="35" fill="#ffffff" stroke="#000000" stroke-width="1"></rect></g><g transform="translate(0, 210)"><rect x="0" y="0" width="35" height="35" fill="#ffffff" stroke="#000000" stroke-width="1"></rect><text x="0.5" y="10.5" style="line-height: 1; font-family: Verdana; font-size: 10px; font-weight: normal; fill: #000000;">▸8</text></g><g transform="translate(35, 210)"><rect x="0" y="0" width="35" height="35" fill="#ffffff" stroke="#000000" stroke-width="1"></rect></g><g transform="translate(70, 210)"><rect x="0" y="0" width="35" height="35" fill="#ffffff" stroke="#000000" stroke-width="1"></rect></g><g transform="translate(105, 210)"><rect x="0" y="0" width="35" height="35" fill="#ffffff" stroke="#000000" stroke-width="1"></rect></g><g transform="translate(140, 210)"><rect x="0" y="0" width="35" height="35" fill="#ffffff" stroke="#000000" stroke-width="1"></rect></g><g transform="translate(210, 210)"><rect x="0" y="0" width="35" height="35" fill="#ffffff" stroke="#000000" stroke-width="1"></rect></g><g transform="translate(280, 210)"><rect x="0" y="0" width="35" height="35" fill="#ffffff" stroke="#000000" stroke-width="1"></rect></g><g transform="translate(560, 245)"><rect x="0" y="0" width="35" height="35" fill="#ffffff" stroke="#000000" stroke-width="1"></rect></g><g transform="translate(665, 245)"><rect x="0" y="0" width="35" height="35" fill="#ffffff" stroke="#000000" stroke-width="1"></rect></g><g transform="translate(175, 245)"><rect x="0" y="0" width="35" height="35" fill="#ffffff" stroke="#000000" stroke-width="1"></rect></g><g transform="translate(105, 245)"><rect x="0" y="0" width="35" height="35" fill="#ffffff" stroke="#000000" stroke-width="1"></rect></g><g transform="translate(280, 245)"><rect x="0" y="0" width="35" height="35" fill="#ffffff" stroke="#000000" stroke-width="1"></rect></g><g transform="translate(665, 280)"><rect x="0" y="0" width="35" height="35" fill="#ffffff" stroke="#000000" stroke-width="1"></rect></g><g transform="translate(105, 280)"><rect x="0" y="0" width="35" height="35" fill="#ffffff" stroke="#000000" stroke-width="1"></rect></g><g transform="translate(280, 280)"><rect x="0" y="0" width="35" height="35" fill="#ffffff" stroke="#000000" stroke-width="1"></rect></g><g transform="translate(525, 315)"><rect x="0" y="0" width="35" height="35" fill="#ffffff" stroke="#000000" stroke-width="1"></rect><text x="0.5" y="10.5" style="line-height: 1; font-family: Verdana; font-size: 10px; font-weight: normal; fill: #000000;">▸13</text></g><g transform="translate(560, 315)"><rect x="0" y="0" width="35" height="35" fill="#ffffff" stroke="#000000" stroke-width="1"></rect></g><g transform="translate(595, 315)"><rect x="0" y="0" width="35" height="35" fill="#ffffff" stroke="#000000" stroke-width="1"></rect></g><g transform="translate(630, 315)"><rect x="0" y="0" width="35" height="35" fill="#ffffff" stroke="#000000" stroke-width="1"></rect></g><g transform="translate(665, 315)"><rect x="0" y="0" width="35" height="35" fill="#d5d5d5" stroke="#000000" stroke-width="1"></rect><text y="31.5" style="line-height: 1; font-family: Verdana; font-size: 10px; font-weight: bold; fill: #ffffff;" x="24.5">3</text></g><g transform="translate(105, 315)"><rect x="0" y="0" width="35" height="35" fill="#ffffff" stroke="#000000" stroke-width="1"></rect></g><g transform="translate(280, 315)"><rect x="0" y="0" width="35" height="35" fill="#ffffff" stroke="#000000" stroke-width="1"></rect></g><g transform="translate(280, 350)"><rect x="0" y="0" width="35" height="35" fill="#ffffff" stroke="#000000" stroke-width="1"></rect></g><g transform="translate(280, 385)"><rect x="0" y="0" width="35" height="35" fill="#ffffff" stroke="#000000" stroke-width="1"></rect></g><g transform="translate(210, 385)"><rect x="0" y="0" width="35" height="35" fill="#ffffff" stroke="#000000" stroke-width="1"></rect><text x="0.5" y="10.5" style="line-height: 1; font-family: Verdana; font-size: 10px; font-weight: normal; fill: #000000;">▸18</text></g><g transform="translate(245, 385)"><rect x="0" y="0" width="35" height="35" fill="#ffffff" stroke="#000000" stroke-width="1"></rect></g><g transform="translate(315, 385)"><rect x="0" y="0" width="35" height="35" fill="#ffffff" stroke="#000000" stroke-width="1"></rect></g><g transform="translate(350, 385)"><rect x="0" y="0" width="35" height="35" fill="#ffffff" stroke="#000000" stroke-width="1"></rect></g><g transform="translate(385, 385)"><rect x="0" y="0" width="35" height="35" fill="#ffffff" stroke="#000000" stroke-width="1"></rect></g><g transform="translate(630, 0)"><rect x="0" y="0" width="35" height="35" fill="#ffffff" stroke="#000000" stroke-width="1"></rect><text x="0.5" y="10.5" style="line-height: 1; font-family: Verdana; font-size: 10px; font-weight: normal; fill: #000000;">▾12</text></g><g transform="translate(420, 0)"><rect x="0" y="0" width="35" height="35" fill="#ffffff" stroke="#000000" stroke-width="1"></rect><text x="0.5" y="10.5" style="line-height: 1; font-family: Verdana; font-size: 10px; font-weight: normal; fill: #000000;">▾4</text></g><g transform="translate(175, 0)"><rect x="0" y="0" width="35" height="35" fill="#ffffff" stroke="#000000" stroke-width="1"></rect><text x="0.5" y="10.5" style="line-height: 1; font-family: Verdana; font-size: 10px; font-weight: normal; fill: #000000;">▾16</text></g><g transform="translate(560, 35)"><rect x="0" y="0" width="35" height="35" fill="#ffffff" stroke="#000000" stroke-width="1"></rect><text x="0.5" y="10.5" style="line-height: 1; font-family: Verdana; font-size: 10px; font-weight: normal; fill: #000000;">▾2</text></g><g transform="translate(630, 35)"><rect x="0" y="0" width="35" height="35" fill="#ffffff" stroke="#000000" stroke-width="1"></rect></g><g transform="translate(420, 35)"><rect x="0" y="0" width="35" height="35" fill="#ffffff" stroke="#000000" stroke-width="1"></rect></g><g transform="translate(280, 35)"><rect x="0" y="0" width="35" height="35" fill="#ffffff" stroke="#000000" stroke-width="1"></rect><text x="0.5" y="10.5" style="line-height: 1; font-family: Verdana; font-size: 10px; font-weight: normal; fill: #000000;">▸10</text></g><g transform="translate(315, 35)"><rect x="0" y="0" width="35" height="35" fill="#ffffff" stroke="#000000" stroke-width="1"></rect></g><g transform="translate(350, 35)"><rect x="0" y="0" width="35" height="35" fill="#ffffff" stroke="#000000" stroke-width="1"></rect><text x="0.5" y="10.5" style="line-height: 1; font-family: Verdana; font-size: 10px; font-weight: normal; fill: #000000;">▾17</text></g><g transform="translate(385, 35)"><rect x="0" y="0" width="35" height="35" fill="#ffffff" stroke="#000000" stroke-width="1"></rect></g><g transform="translate(455, 35)"><rect x="0" y="0" width="35" height="35" fill="#ffffff" stroke="#000000" stroke-width="1"></rect></g><g transform="translate(175, 35)"><rect x="0" y="0" width="35" height="35" fill="#ffffff" stroke="#000000" stroke-width="1"></rect></g></g><g transform="translate(0, 438)"><g><rect x="4" y="3" width="35" height="35" fill="#000000"></rect><rect x="39" y="3" width="35" height="35" fill="#000000"></rect><rect x="74" y="3" width="35" height="35" fill="#000000"></rect><rect x="109" y="3" width="35" height="35" fill="#000000"></rect><rect x="144" y="3" width="35" height="35" fill="#000000"></rect></g><g transform="translate(0, 0)"><rect x="0" y="0" width="35" height="35" fill="#d5d5d5" stroke="#000000" stroke-width="1"></rect><text y="23.75" style="line-height: 1; font-family: Verdana; font-size: 16px; font-weight: bold; fill: #ffffff;" x="12">1</text></g><g transform="translate(35, 0)"><rect x="0" y="0" width="35" height="35" fill="#d5d5d5" stroke="#000000" stroke-width="1"></rect><text y="23.75" style="line-height: 1; font-family: Verdana; font-size: 16px; font-weight: bold; fill: #ffffff;" x="12">2</text></g><g transform="translate(70, 0)"><rect x="0" y="0" width="35" height="35" fill="#d5d5d5" stroke="#000000" stroke-width="1"></rect><text y="23.75" style="line-height: 1; font-family: Verdana; font-size: 16px; font-weight: bold; fill: #ffffff;" x="12">3</text></g><g transform="translate(105, 0)"><rect x="0" y="0" width="35" height="35" fill="#d5d5d5" stroke="#000000" stroke-width="1"></rect><text y="23.75" style="line-height: 1; font-family: Verdana; font-size: 16px; font-weight: bold; fill: #ffffff;" x="12">4</text></g><g transform="translate(140, 0)"><rect x="0" y="0" width="35" height="35" fill="#d5d5d5" stroke="#000000" stroke-width="1"></rect><text y="23.75" style="line-height: 1; font-family: Verdana; font-size: 16px; font-weight: bold; fill: #ffffff;" x="12">5</text></g></g><text transform="translate(0, 518)" style="line-height: 1; font-family: Verdana; font-size: 12px; font-weight: normal; fill: #000000;"><tspan x="0" y="-15">Erstellt mit XWords - dem kostenlosen Online-Kreuzworträtsel-Generator</tspan><tspan x="0" y="0">https://www.xwords-generator.de/de</tspan></text></svg>